<svg width="15" height="15" viewBox="0 0 15 15" fill="none" xmlns="http://www.w3.org/2000/svg">
<path d="M7.64645 1.20117H2.22656V0.439453C2.22656 0.196758 2.0298 0 1.78711 0C1.54441 0 1.34766 0.196758 1.34766 0.439453V14.5605C1.34766 14.8032 1.54441 15 1.78711 15C2.0298 15 2.22656 14.8032 2.22656 14.5605V7.93945H7.64645C7.88915 7.93945 8.08591 7.7427 8.08591 7.5V1.64062C8.08591 1.39793 7.88915 1.20117 7.64645 1.20117Z" fill="#C7C7C7"/>
<path d="M13.621 8.80166L12.5144 6.03516L13.621 3.26865C13.6752 3.1333 13.6585 2.97979 13.5767 2.85908C13.495 2.73838 13.3588 2.66602 13.2129 2.66602H8.96484V7.5C8.96484 8.22686 8.37334 8.81836 7.64648 8.81836C6.98751 8.81836 6.40137 8.81836 5.74219 8.81836V8.96484C5.74219 9.20798 5.93903 9.4043 6.18164 9.4043H13.2129C13.3588 9.4043 13.495 9.33193 13.5767 9.21123C13.6585 9.09053 13.6752 8.93701 13.621 8.80166Z" fill="#C7C7C7"/>
</svg>
